<?xml version="1.0" encoding="UTF-8"?>
<svg id="Layer_2" data-name="Layer 2" xmlns="http://www.w3.org/2000/svg" viewBox="0 0 120.71 118.15">
  <defs>
    <style>
      .cls-1 {
        fill: #97cfbd;
      }

      .cls-1, .cls-2 {
        fill-rule: evenodd;
      }

      .cls-2 {
        fill: #1d1d1b;
      }
    </style>
  </defs>
  <g id="Layer_1-2">
    <g>
      <path class="cls-1" d="m52.6,44.57l-36.73,8.36,9.72-9.72,22.98-5.36c1.94-.42,3.24-2.07,3.22-4.09l.11-16.86,6.71-6.71v26.76c.02,3.77-2.39,6.83-6,7.62Z"/>
      <path class="cls-2" d="m92.09,21.96L23.25,90.81,1.26,68.83c-2.21-2.21-1.39-5.79,1.48-6.42l51.72-11.64c6.27-1.37,10.52-6.79,10.47-13.32l-.05-33.85c-.03-3.39,4.01-4.83,6.51-2.32l20.7,20.7Z"/>
      <path class="cls-1" d="m68.11,73.58l36.73-8.36-9.72,9.72-22.98,5.36c-1.94.42-3.24,2.07-3.22,4.09l-.11,16.86-6.71,6.71v-26.76c-.02-3.77,2.39-6.83,6-7.62Z"/>
      <path class="cls-2" d="m28.62,96.18L97.46,27.34l21.98,21.98c2.21,2.21,1.39,5.79-1.48,6.42l-51.72,11.64c-6.27,1.37-10.52,6.79-10.47,13.32l.05,33.85c.03,3.39-4.01,4.83-6.51,2.32l-20.7-20.7Z"/>
    </g>
  </g>
</svg>